%TF.GenerationSoftware,KiCad,Pcbnew,9.0.2*%
%TF.CreationDate,2026-05-21T20:49:28+08:00*%
%TF.ProjectId,6502_computer,36353032-5f63-46f6-9d70-757465722e6b,rev?*%
%TF.SameCoordinates,Original*%
%TF.FileFunction,Soldermask,Bot*%
%TF.FilePolarity,Negative*%
%FSLAX46Y46*%
G04 Gerber Fmt 4.6, Leading zero omitted, Abs format (unit mm)*
G04 Created by KiCad (PCBNEW 9.0.2) date 2026-05-21 20:49:28*
%MOMM*%
%LPD*%
G01*
G04 APERTURE LIST*
G04 Aperture macros list*
%AMRoundRect*
0 Rectangle with rounded corners*
0 $1 Rounding radius*
0 $2 $3 $4 $5 $6 $7 $8 $9 X,Y pos of 4 corners*
0 Add a 4 corners polygon primitive as box body*
4,1,4,$2,$3,$4,$5,$6,$7,$8,$9,$2,$3,0*
0 Add four circle primitives for the rounded corners*
1,1,$1+$1,$2,$3*
1,1,$1+$1,$4,$5*
1,1,$1+$1,$6,$7*
1,1,$1+$1,$8,$9*
0 Add four rect primitives between the rounded corners*
20,1,$1+$1,$2,$3,$4,$5,0*
20,1,$1+$1,$4,$5,$6,$7,0*
20,1,$1+$1,$6,$7,$8,$9,0*
20,1,$1+$1,$8,$9,$2,$3,0*%
G04 Aperture macros list end*
%ADD10C,1.600000*%
%ADD11RoundRect,0.250000X0.550000X-0.950000X0.550000X0.950000X-0.550000X0.950000X-0.550000X-0.950000X0*%
%ADD12O,1.600000X2.400000*%
%ADD13R,1.700000X1.700000*%
%ADD14C,1.700000*%
%ADD15RoundRect,0.250000X0.550000X0.550000X-0.550000X0.550000X-0.550000X-0.550000X0.550000X-0.550000X0*%
%ADD16RoundRect,0.250000X0.950000X0.550000X-0.950000X0.550000X-0.950000X-0.550000X0.950000X-0.550000X0*%
%ADD17O,2.400000X1.600000*%
%ADD18RoundRect,0.250000X-0.950000X-0.550000X0.950000X-0.550000X0.950000X0.550000X-0.950000X0.550000X0*%
%ADD19R,1.800000X1.800000*%
%ADD20C,1.800000*%
%ADD21R,2.000000X1.440000*%
%ADD22O,2.000000X1.440000*%
%ADD23R,1.600000X1.600000*%
%ADD24R,1.100000X1.800000*%
%ADD25RoundRect,0.275000X-0.275000X-0.625000X0.275000X-0.625000X0.275000X0.625000X-0.275000X0.625000X0*%
%ADD26C,2.000000*%
%ADD27O,5.004000X2.604000*%
%ADD28O,1.904000X3.604000*%
%ADD29C,1.500000*%
%ADD30RoundRect,0.249999X0.850001X-0.850001X0.850001X0.850001X-0.850001X0.850001X-0.850001X-0.850001X0*%
%ADD31C,2.200000*%
%ADD32RoundRect,0.249999X0.850001X0.850001X-0.850001X0.850001X-0.850001X-0.850001X0.850001X-0.850001X0*%
%ADD33RoundRect,0.102000X-0.699000X-0.699000X0.699000X-0.699000X0.699000X0.699000X-0.699000X0.699000X0*%
%ADD34C,1.602000*%
%ADD35C,3.510000*%
%ADD36C,5.700000*%
%ADD37C,4.000000*%
%ADD38RoundRect,0.250000X-0.600000X-0.600000X0.600000X-0.600000X0.600000X0.600000X-0.600000X0.600000X0*%
G04 APERTURE END LIST*
D10*
%TO.C,C18*%
X104100000Y-137180000D03*
X99100000Y-137180000D03*
%TD*%
D11*
%TO.C,U18*%
X138080000Y-139730000D03*
D12*
X140620000Y-139730000D03*
X143160000Y-139730000D03*
X145700000Y-139730000D03*
X148240000Y-139730000D03*
X150780000Y-139730000D03*
X153320000Y-139730000D03*
X153320000Y-132110000D03*
X150780000Y-132110000D03*
X148240000Y-132110000D03*
X145700000Y-132110000D03*
X143160000Y-132110000D03*
X140620000Y-132110000D03*
X138080000Y-132110000D03*
%TD*%
D10*
%TO.C,C7*%
X82000000Y-64930000D03*
X79500000Y-64930000D03*
%TD*%
D11*
%TO.C,U5*%
X52070000Y-71150000D03*
D12*
X54610000Y-71150000D03*
X57150000Y-71150000D03*
X59690000Y-71150000D03*
X62230000Y-71150000D03*
X64770000Y-71150000D03*
X67310000Y-71150000D03*
X69850000Y-71150000D03*
X72390000Y-71150000D03*
X74930000Y-71150000D03*
X74930000Y-63530000D03*
X72390000Y-63530000D03*
X69850000Y-63530000D03*
X67310000Y-63530000D03*
X64770000Y-63530000D03*
X62230000Y-63530000D03*
X59690000Y-63530000D03*
X57150000Y-63530000D03*
X54610000Y-63530000D03*
X52070000Y-63530000D03*
%TD*%
D13*
%TO.C,J4*%
X77275000Y-151165000D03*
D14*
X74735000Y-151165000D03*
%TD*%
D15*
%TO.C,D4*%
X153320000Y-143880000D03*
D10*
X145700000Y-143880000D03*
%TD*%
D16*
%TO.C,U16*%
X127320000Y-119410000D03*
D17*
X127320000Y-116870000D03*
X127320000Y-114330000D03*
X127320000Y-111790000D03*
X127320000Y-109250000D03*
X127320000Y-106710000D03*
X127320000Y-104170000D03*
X127320000Y-101630000D03*
X127320000Y-99090000D03*
X127320000Y-96550000D03*
X127320000Y-94010000D03*
X127320000Y-91470000D03*
X127320000Y-88930000D03*
X127320000Y-86390000D03*
X112080000Y-86390000D03*
X112080000Y-88930000D03*
X112080000Y-91470000D03*
X112080000Y-94010000D03*
X112080000Y-96550000D03*
X112080000Y-99090000D03*
X112080000Y-101630000D03*
X112080000Y-104170000D03*
X112080000Y-106710000D03*
X112080000Y-109250000D03*
X112080000Y-111790000D03*
X112080000Y-114330000D03*
X112080000Y-116870000D03*
X112080000Y-119410000D03*
%TD*%
D10*
%TO.C,C2*%
X48000000Y-50790000D03*
X48000000Y-48290000D03*
%TD*%
%TO.C,C22*%
X127320000Y-133380000D03*
X127320000Y-130880000D03*
%TD*%
D11*
%TO.C,U15*%
X99380000Y-132080000D03*
D12*
X101920000Y-132080000D03*
X104460000Y-132080000D03*
X107000000Y-132080000D03*
X109540000Y-132080000D03*
X112080000Y-132080000D03*
X114620000Y-132080000D03*
X117160000Y-132080000D03*
X117160000Y-124460000D03*
X114620000Y-124460000D03*
X112080000Y-124460000D03*
X109540000Y-124460000D03*
X107000000Y-124460000D03*
X104460000Y-124460000D03*
X101920000Y-124460000D03*
X99380000Y-124460000D03*
%TD*%
D18*
%TO.C,U1*%
X111960000Y-27970000D03*
D17*
X111960000Y-30510000D03*
X111960000Y-33050000D03*
X111960000Y-35590000D03*
X111960000Y-38130000D03*
X111960000Y-40670000D03*
X111960000Y-43210000D03*
X111960000Y-45750000D03*
X111960000Y-48290000D03*
X111960000Y-50830000D03*
X111960000Y-53370000D03*
X111960000Y-55910000D03*
X111960000Y-58450000D03*
X111960000Y-60990000D03*
X111960000Y-63530000D03*
X111960000Y-66070000D03*
X111960000Y-68610000D03*
X111960000Y-71150000D03*
X111960000Y-73690000D03*
X111960000Y-76230000D03*
X127200000Y-76230000D03*
X127200000Y-73690000D03*
X127200000Y-71150000D03*
X127200000Y-68610000D03*
X127200000Y-66070000D03*
X127200000Y-63530000D03*
X127200000Y-60990000D03*
X127200000Y-58450000D03*
X127200000Y-55910000D03*
X127200000Y-53370000D03*
X127200000Y-50830000D03*
X127200000Y-48290000D03*
X127200000Y-45750000D03*
X127200000Y-43210000D03*
X127200000Y-40670000D03*
X127200000Y-38130000D03*
X127200000Y-35590000D03*
X127200000Y-33050000D03*
X127200000Y-30510000D03*
X127200000Y-27970000D03*
%TD*%
D19*
%TO.C,D3*%
X82610000Y-144150000D03*
D20*
X85150000Y-144150000D03*
%TD*%
D11*
%TO.C,U3*%
X52070000Y-40670000D03*
D12*
X54610000Y-40670000D03*
X57150000Y-40670000D03*
X59690000Y-40670000D03*
X62230000Y-40670000D03*
X64770000Y-40670000D03*
X67310000Y-40670000D03*
X69850000Y-40670000D03*
X72390000Y-40670000D03*
X74930000Y-40670000D03*
X74930000Y-33050000D03*
X72390000Y-33050000D03*
X69850000Y-33050000D03*
X67310000Y-33050000D03*
X64770000Y-33050000D03*
X62230000Y-33050000D03*
X59690000Y-33050000D03*
X57150000Y-33050000D03*
X54610000Y-33050000D03*
X52070000Y-33050000D03*
%TD*%
D16*
%TO.C,U7*%
X101350000Y-66070000D03*
D17*
X101350000Y-63530000D03*
X101350000Y-60990000D03*
X101350000Y-58450000D03*
X101350000Y-55910000D03*
X101350000Y-53370000D03*
X101350000Y-50830000D03*
X101350000Y-48290000D03*
X101350000Y-45750000D03*
X101350000Y-43210000D03*
X101350000Y-40670000D03*
X101350000Y-38130000D03*
X101350000Y-35590000D03*
X101350000Y-33050000D03*
X86110000Y-33050000D03*
X86110000Y-35590000D03*
X86110000Y-38130000D03*
X86110000Y-40670000D03*
X86110000Y-43210000D03*
X86110000Y-45750000D03*
X86110000Y-48290000D03*
X86110000Y-50830000D03*
X86110000Y-53370000D03*
X86110000Y-55910000D03*
X86110000Y-58450000D03*
X86110000Y-60990000D03*
X86110000Y-63530000D03*
X86110000Y-66070000D03*
%TD*%
D18*
%TO.C,U6*%
X52070000Y-86390000D03*
D17*
X52070000Y-88930000D03*
X52070000Y-91470000D03*
X52070000Y-94010000D03*
X52070000Y-96550000D03*
X52070000Y-99090000D03*
X52070000Y-101630000D03*
X52070000Y-104170000D03*
X52070000Y-106710000D03*
X52070000Y-109250000D03*
X52070000Y-111790000D03*
X52070000Y-114330000D03*
X52070000Y-116870000D03*
X52070000Y-119410000D03*
X52070000Y-121950000D03*
X52070000Y-124490000D03*
X52070000Y-127030000D03*
X52070000Y-129570000D03*
X52070000Y-132110000D03*
X52070000Y-134650000D03*
X67310000Y-134650000D03*
X67310000Y-132110000D03*
X67310000Y-129570000D03*
X67310000Y-127030000D03*
X67310000Y-124490000D03*
X67310000Y-121950000D03*
X67310000Y-119410000D03*
X67310000Y-116870000D03*
X67310000Y-114330000D03*
X67310000Y-111790000D03*
X67310000Y-109250000D03*
X67310000Y-106710000D03*
X67310000Y-104170000D03*
X67310000Y-101630000D03*
X67310000Y-99090000D03*
X67310000Y-96550000D03*
X67310000Y-94010000D03*
X67310000Y-91470000D03*
X67310000Y-88930000D03*
X67310000Y-86390000D03*
%TD*%
D13*
%TO.C,J8*%
X212820000Y-152850000D03*
D14*
X210280000Y-152850000D03*
X207740000Y-152850000D03*
X205200000Y-152850000D03*
X202660000Y-152850000D03*
X200120000Y-152850000D03*
X197580000Y-152850000D03*
X195040000Y-152850000D03*
X192500000Y-152850000D03*
X189960000Y-152850000D03*
X187420000Y-152850000D03*
X184880000Y-152850000D03*
%TD*%
D21*
%TO.C,U9*%
X179890000Y-63530000D03*
D22*
X179890000Y-60990000D03*
X179890000Y-58450000D03*
X179890000Y-55910000D03*
X179890000Y-53370000D03*
X179890000Y-50830000D03*
X179890000Y-48290000D03*
X179890000Y-45750000D03*
X179890000Y-43210000D03*
X179890000Y-40670000D03*
X179890000Y-38130000D03*
X179890000Y-35590000D03*
X179890000Y-33050000D03*
X179890000Y-30510000D03*
X164650000Y-30510000D03*
X164650000Y-33050000D03*
X164650000Y-35590000D03*
X164650000Y-38130000D03*
X164650000Y-40670000D03*
X164650000Y-43210000D03*
X164650000Y-45750000D03*
X164650000Y-48290000D03*
X164650000Y-50830000D03*
X164650000Y-53370000D03*
X164650000Y-55910000D03*
X164650000Y-58450000D03*
X164650000Y-60990000D03*
X164650000Y-63530000D03*
%TD*%
D10*
%TO.C,R3*%
X101340000Y-29630000D03*
X108960000Y-29630000D03*
%TD*%
D23*
%TO.C,Y1*%
X85960000Y-80130000D03*
D10*
X93580000Y-80130000D03*
X93580000Y-72510000D03*
X85960000Y-72510000D03*
%TD*%
D23*
%TO.C,REF\u002A\u002A*%
X85960000Y-80130000D03*
D10*
X101200000Y-80130000D03*
X101200000Y-72510000D03*
X85960000Y-72510000D03*
%TD*%
%TO.C,C27*%
X92140000Y-148050000D03*
X92140000Y-150550000D03*
%TD*%
%TO.C,R6*%
X96540000Y-148050000D03*
X96540000Y-155670000D03*
%TD*%
D24*
%TO.C,Q1*%
X64770000Y-146370000D03*
D25*
X66040000Y-144300000D03*
X67310000Y-146370000D03*
%TD*%
D26*
%TO.C,SW1*%
X87450000Y-148050000D03*
X87450000Y-154550000D03*
X82950000Y-148050000D03*
X82950000Y-154550000D03*
%TD*%
D11*
%TO.C,U17*%
X135540000Y-124490000D03*
D12*
X138080000Y-124490000D03*
X140620000Y-124490000D03*
X143160000Y-124490000D03*
X145700000Y-124490000D03*
X148240000Y-124490000D03*
X150780000Y-124490000D03*
X153320000Y-124490000D03*
X153320000Y-116870000D03*
X150780000Y-116870000D03*
X148240000Y-116870000D03*
X145700000Y-116870000D03*
X143160000Y-116870000D03*
X140620000Y-116870000D03*
X138080000Y-116870000D03*
X135540000Y-116870000D03*
%TD*%
D10*
%TO.C,R8*%
X135540000Y-143880000D03*
X143160000Y-143880000D03*
%TD*%
D27*
%TO.C,J5*%
X54750000Y-155100000D03*
D28*
X54750000Y-150600000D03*
%TD*%
D10*
%TO.C,C8*%
X112080000Y-82130000D03*
X114580000Y-82130000D03*
%TD*%
D13*
%TO.C,J2*%
X220400000Y-35590000D03*
D14*
X220400000Y-38130000D03*
X220400000Y-40670000D03*
X220400000Y-43210000D03*
X220400000Y-45750000D03*
X220400000Y-48290000D03*
X220400000Y-50830000D03*
X220400000Y-53370000D03*
X220400000Y-55910000D03*
X220400000Y-58450000D03*
X220400000Y-60990000D03*
X220400000Y-63530000D03*
X220400000Y-66070000D03*
X220400000Y-68610000D03*
X220400000Y-71150000D03*
X220400000Y-73690000D03*
X220400000Y-76230000D03*
X220400000Y-78770000D03*
X220400000Y-81310000D03*
X220400000Y-83850000D03*
X220400000Y-86390000D03*
X220400000Y-88930000D03*
X220400000Y-91470000D03*
X220400000Y-94010000D03*
X220400000Y-96550000D03*
X220400000Y-99090000D03*
X220400000Y-101630000D03*
X220400000Y-104170000D03*
X220400000Y-106710000D03*
X220400000Y-109250000D03*
X220400000Y-111790000D03*
X220400000Y-114330000D03*
X220400000Y-116870000D03*
X220400000Y-119410000D03*
X220400000Y-121950000D03*
X220400000Y-124490000D03*
X220400000Y-127030000D03*
X220400000Y-129570000D03*
X220400000Y-132110000D03*
X220400000Y-134650000D03*
%TD*%
D29*
%TO.C,Y2*%
X77200000Y-94060000D03*
X77200000Y-89160000D03*
%TD*%
D10*
%TO.C,C24*%
X134400000Y-132110000D03*
X134400000Y-134610000D03*
%TD*%
%TO.C,C23*%
X119800000Y-137180000D03*
X114800000Y-137180000D03*
%TD*%
%TO.C,R5*%
X69850000Y-155100000D03*
X62230000Y-155100000D03*
%TD*%
%TO.C,C20*%
X106950000Y-137180000D03*
X111950000Y-137180000D03*
%TD*%
%TO.C,C5*%
X81950000Y-86660000D03*
X81950000Y-89160000D03*
%TD*%
%TO.C,C13*%
X77100000Y-104170000D03*
X79600000Y-104170000D03*
%TD*%
%TO.C,C16*%
X135540000Y-97830000D03*
X138040000Y-97830000D03*
%TD*%
%TO.C,R1*%
X107300000Y-35590000D03*
X107300000Y-43210000D03*
%TD*%
%TO.C,C10*%
X157750000Y-68580000D03*
X157750000Y-71080000D03*
%TD*%
D11*
%TO.C,U12*%
X135540000Y-94010000D03*
D12*
X138080000Y-94010000D03*
X140620000Y-94010000D03*
X143160000Y-94010000D03*
X145700000Y-94010000D03*
X148240000Y-94010000D03*
X150780000Y-94010000D03*
X153320000Y-94010000D03*
X153320000Y-86390000D03*
X150780000Y-86390000D03*
X148240000Y-86390000D03*
X145700000Y-86390000D03*
X143160000Y-86390000D03*
X140620000Y-86390000D03*
X138080000Y-86390000D03*
X135540000Y-86390000D03*
%TD*%
D10*
%TO.C,C1*%
X47950000Y-35550000D03*
X47950000Y-33050000D03*
%TD*%
D30*
%TO.C,D5*%
X184900000Y-139730000D03*
D31*
X184900000Y-129570000D03*
%TD*%
D29*
%TO.C,Y3*%
X122350000Y-125800000D03*
X122350000Y-130700000D03*
%TD*%
D32*
%TO.C,D2*%
X103980000Y-118980000D03*
D31*
X93820000Y-118980000D03*
%TD*%
D11*
%TO.C,U2*%
X52070000Y-55910000D03*
D12*
X54610000Y-55910000D03*
X57150000Y-55910000D03*
X59690000Y-55910000D03*
X62230000Y-55910000D03*
X64770000Y-55910000D03*
X67310000Y-55910000D03*
X69850000Y-55910000D03*
X72390000Y-55910000D03*
X74930000Y-55910000D03*
X74930000Y-48290000D03*
X72390000Y-48290000D03*
X69850000Y-48290000D03*
X67310000Y-48290000D03*
X64770000Y-48290000D03*
X62230000Y-48290000D03*
X59690000Y-48290000D03*
X57150000Y-48290000D03*
X54610000Y-48290000D03*
X52070000Y-48290000D03*
%TD*%
D10*
%TO.C,R4*%
X69830000Y-151100000D03*
X62210000Y-151100000D03*
%TD*%
%TO.C,C12*%
X153320000Y-66330000D03*
X150820000Y-66330000D03*
%TD*%
D18*
%TO.C,U14*%
X79980000Y-120580000D03*
D17*
X79980000Y-123120000D03*
X79980000Y-125660000D03*
X79980000Y-128200000D03*
X79980000Y-130740000D03*
X79980000Y-133280000D03*
X79980000Y-135820000D03*
X87600000Y-135820000D03*
X87600000Y-133280000D03*
X87600000Y-130740000D03*
X87600000Y-128200000D03*
X87600000Y-125660000D03*
X87600000Y-123120000D03*
X87600000Y-120580000D03*
%TD*%
D10*
%TO.C,C25*%
X127320000Y-123300000D03*
X127320000Y-125800000D03*
%TD*%
D33*
%TO.C,J7*%
X148600000Y-151192500D03*
D34*
X146000000Y-151192500D03*
X150650000Y-151192500D03*
X143950000Y-151192500D03*
X150650000Y-148702500D03*
X143950000Y-148702500D03*
D35*
X147300000Y-155002500D03*
X140540000Y-154192500D03*
X154060000Y-154192500D03*
%TD*%
D18*
%TO.C,U13*%
X164650000Y-94010000D03*
D17*
X164650000Y-96550000D03*
X164650000Y-99090000D03*
X164650000Y-101630000D03*
X164650000Y-104170000D03*
X164650000Y-106710000D03*
X164650000Y-109250000D03*
X164650000Y-111790000D03*
X164650000Y-114330000D03*
X164650000Y-116870000D03*
X164650000Y-119410000D03*
X164650000Y-121950000D03*
X164650000Y-124490000D03*
X164650000Y-127030000D03*
X164650000Y-129570000D03*
X164650000Y-132110000D03*
X164650000Y-134650000D03*
X164650000Y-137190000D03*
X164650000Y-139730000D03*
X164650000Y-142270000D03*
X179890000Y-142270000D03*
X179890000Y-139730000D03*
X179890000Y-137190000D03*
X179890000Y-134650000D03*
X179890000Y-132110000D03*
X179890000Y-129570000D03*
X179890000Y-127030000D03*
X179890000Y-124490000D03*
X179890000Y-121950000D03*
X179890000Y-119410000D03*
X179890000Y-116870000D03*
X179890000Y-114330000D03*
X179890000Y-111790000D03*
X179890000Y-109250000D03*
X179890000Y-106710000D03*
X179890000Y-104170000D03*
X179890000Y-101630000D03*
X179890000Y-99090000D03*
X179890000Y-96550000D03*
X179890000Y-94010000D03*
%TD*%
D13*
%TO.C,J3*%
X249050000Y-35590000D03*
D14*
X249050000Y-38130000D03*
X249050000Y-40670000D03*
X249050000Y-43210000D03*
X249050000Y-45750000D03*
X249050000Y-48290000D03*
X249050000Y-50830000D03*
X249050000Y-53370000D03*
X249050000Y-55910000D03*
X249050000Y-58450000D03*
X249050000Y-60990000D03*
X249050000Y-63530000D03*
X249050000Y-66070000D03*
X249050000Y-68610000D03*
X249050000Y-71150000D03*
X249050000Y-73690000D03*
X249050000Y-76230000D03*
X249050000Y-78770000D03*
X249050000Y-81310000D03*
X249050000Y-83850000D03*
X249050000Y-86390000D03*
X249050000Y-88930000D03*
X249050000Y-91470000D03*
X249050000Y-94010000D03*
X249050000Y-96550000D03*
X249050000Y-99090000D03*
X249050000Y-101630000D03*
X249050000Y-104170000D03*
X249050000Y-106710000D03*
X249050000Y-109250000D03*
X249050000Y-111790000D03*
X249050000Y-114330000D03*
X249050000Y-116870000D03*
X249050000Y-119410000D03*
X249050000Y-121950000D03*
X249050000Y-124490000D03*
X249050000Y-127030000D03*
X249050000Y-129570000D03*
X249050000Y-132110000D03*
X249050000Y-134650000D03*
%TD*%
D36*
%TO.C,H1*%
X43600000Y-23630000D03*
%TD*%
D10*
%TO.C,C4*%
X48200000Y-66030000D03*
X48200000Y-63530000D03*
%TD*%
%TO.C,C26*%
X157400000Y-137430000D03*
X157400000Y-139930000D03*
%TD*%
%TO.C,C17*%
X87600000Y-116845000D03*
X85100000Y-116845000D03*
%TD*%
%TO.C,C11*%
X140580000Y-66330000D03*
X138080000Y-66330000D03*
%TD*%
%TO.C,R2*%
X101340000Y-25980000D03*
X108960000Y-25980000D03*
%TD*%
D37*
%TO.C,J6*%
X102500000Y-151174669D03*
X127500000Y-151174669D03*
D23*
X109460000Y-149754669D03*
D10*
X112230000Y-149754669D03*
X115000000Y-149754669D03*
X117770000Y-149754669D03*
X120540000Y-149754669D03*
X110845000Y-152594669D03*
X113615000Y-152594669D03*
X116385000Y-152594669D03*
X119155000Y-152594669D03*
%TD*%
D36*
%TO.C,H3*%
X43600000Y-154330000D03*
%TD*%
D38*
%TO.C,J1*%
X193710000Y-30510000D03*
D14*
X196250000Y-30510000D03*
X193710000Y-33050000D03*
X196250000Y-33050000D03*
X193710000Y-35590000D03*
X196250000Y-35590000D03*
X193710000Y-38130000D03*
X196250000Y-38130000D03*
X193710000Y-40670000D03*
X196250000Y-40670000D03*
X193710000Y-43210000D03*
X196250000Y-43210000D03*
X193710000Y-45750000D03*
X196250000Y-45750000D03*
X193710000Y-48290000D03*
X196250000Y-48290000D03*
X193710000Y-50830000D03*
X196250000Y-50830000D03*
X193710000Y-53370000D03*
X196250000Y-53370000D03*
X193710000Y-55910000D03*
X196250000Y-55910000D03*
X193710000Y-58450000D03*
X196250000Y-58450000D03*
X193710000Y-60990000D03*
X196250000Y-60990000D03*
X193710000Y-63530000D03*
X196250000Y-63530000D03*
X193710000Y-66070000D03*
X196250000Y-66070000D03*
X193710000Y-68610000D03*
X196250000Y-68610000D03*
X193710000Y-71150000D03*
X196250000Y-71150000D03*
X193710000Y-73690000D03*
X196250000Y-73690000D03*
X193710000Y-76230000D03*
X196250000Y-76230000D03*
X193710000Y-78770000D03*
X196250000Y-78770000D03*
%TD*%
D10*
%TO.C,C28*%
X161300000Y-144770000D03*
X161300000Y-142270000D03*
%TD*%
D36*
%TO.C,H2*%
X257400000Y-23630000D03*
%TD*%
D30*
%TO.C,D1*%
X47900000Y-134650000D03*
D31*
X47900000Y-124490000D03*
%TD*%
D10*
%TO.C,C3*%
X107300000Y-48290000D03*
X107300000Y-50790000D03*
%TD*%
D11*
%TO.C,U8*%
X138080000Y-78770000D03*
D12*
X140620000Y-78770000D03*
X143160000Y-78770000D03*
X145700000Y-78770000D03*
X148240000Y-78770000D03*
X150780000Y-78770000D03*
X153320000Y-78770000D03*
X153320000Y-71150000D03*
X150780000Y-71150000D03*
X148240000Y-71150000D03*
X145700000Y-71150000D03*
X143160000Y-71150000D03*
X140620000Y-71150000D03*
X138080000Y-71150000D03*
%TD*%
D10*
%TO.C,C9*%
X138040000Y-82530000D03*
X135540000Y-82530000D03*
%TD*%
D11*
%TO.C,U10*%
X85500000Y-94280000D03*
D12*
X88040000Y-94280000D03*
X90580000Y-94280000D03*
X93120000Y-94280000D03*
X95660000Y-94280000D03*
X98200000Y-94280000D03*
X100740000Y-94280000D03*
X103280000Y-94280000D03*
X103280000Y-86660000D03*
X100740000Y-86660000D03*
X98200000Y-86660000D03*
X95660000Y-86660000D03*
X93120000Y-86660000D03*
X90580000Y-86660000D03*
X88040000Y-86660000D03*
X85500000Y-86660000D03*
%TD*%
D10*
%TO.C,C19*%
X95400000Y-137180000D03*
X95400000Y-132180000D03*
%TD*%
%TO.C,R7*%
X95950000Y-144150000D03*
X88330000Y-144150000D03*
%TD*%
%TO.C,C6*%
X77900000Y-80130000D03*
X80400000Y-80130000D03*
%TD*%
%TO.C,C21*%
X95400000Y-124460000D03*
X95400000Y-126960000D03*
%TD*%
D16*
%TO.C,U4*%
X153320000Y-60970000D03*
D17*
X153320000Y-58430000D03*
X153320000Y-55890000D03*
X153320000Y-53350000D03*
X153320000Y-50810000D03*
X153320000Y-48270000D03*
X153320000Y-45730000D03*
X153320000Y-43190000D03*
X153320000Y-40650000D03*
X153320000Y-38110000D03*
X153320000Y-35570000D03*
X153320000Y-33030000D03*
X153320000Y-30490000D03*
X153320000Y-27950000D03*
X138080000Y-27950000D03*
X138080000Y-30490000D03*
X138080000Y-33030000D03*
X138080000Y-35570000D03*
X138080000Y-38110000D03*
X138080000Y-40650000D03*
X138080000Y-43190000D03*
X138080000Y-45730000D03*
X138080000Y-48270000D03*
X138080000Y-50810000D03*
X138080000Y-53350000D03*
X138080000Y-55890000D03*
X138080000Y-58430000D03*
X138080000Y-60970000D03*
%TD*%
D36*
%TO.C,H4*%
X257400000Y-154330000D03*
%TD*%
D11*
%TO.C,U11*%
X135540000Y-109250000D03*
D12*
X138080000Y-109250000D03*
X140620000Y-109250000D03*
X143160000Y-109250000D03*
X145700000Y-109250000D03*
X148240000Y-109250000D03*
X150780000Y-109250000D03*
X153320000Y-109250000D03*
X153320000Y-101630000D03*
X150780000Y-101630000D03*
X148240000Y-101630000D03*
X145700000Y-101630000D03*
X143160000Y-101630000D03*
X140620000Y-101630000D03*
X138080000Y-101630000D03*
X135540000Y-101630000D03*
%TD*%
D10*
%TO.C,C15*%
X135540000Y-112830000D03*
X138040000Y-112830000D03*
%TD*%
%TO.C,C14*%
X81950000Y-94280000D03*
X81950000Y-96780000D03*
%TD*%
M02*
